<svg width="256" height="256" viewBox="0 0 256 256" fill="none" xmlns="http://www.w3.org/2000/svg">
  <defs>
    <linearGradient id="shell" x1="28" y1="24" x2="224" y2="232" gradientUnits="userSpaceOnUse">
      <stop stop-color="#343944"/>
      <stop offset="1" stop-color="#171A20"/>
    </linearGradient>
  </defs>
  <rect x="24" y="28" width="208" height="208" rx="56" fill="url(#shell)"/>
  <rect x="24" y="28" width="208" height="208" rx="56" stroke="rgba(255,255,255,0.10)" stroke-width="4"/>
  <rect x="100" y="10" width="56" height="26" rx="13" fill="#D32F2F"/>
  <circle cx="128" cy="138" r="78" fill="#F7F2E8"/>
  <circle cx="128" cy="138" r="78" stroke="#1E2128" stroke-opacity="0.14" stroke-width="10"/>
  <path d="M66 165C75 117 116 82 170 87C186 89 202 95 214 105" stroke="#D32F2F" stroke-width="14" stroke-linecap="round"/>
  <rect x="98" y="128" width="60" height="16" rx="2" fill="#1E2128"/>
  <rect x="120" y="128" width="16" height="70" rx="2" fill="#1E2128"/>
  <path d="M128 138L176 103" stroke="#D32F2F" stroke-width="10" stroke-linecap="round"/>
  <path d="M128 138L128 92" stroke="#1E2128" stroke-width="8" stroke-linecap="round"/>
  <circle cx="128" cy="138" r="11" fill="#D32F2F"/>
</svg>
